<svg xmlns="http://www.w3.org/2000/svg" viewBox="0 0 168.59 105">
  <clipPath id="a">
    <path fill-rule="evenodd" d="M0 5a5 5 0 0 1 5-5h158.59a5 5 0 0 1 5 5v95a5 5 0 0 1-5 5H5a5 5 0 0 1-5-5V5Z"/>
  </clipPath>
  <g clip-path="url(#a)">
    <path fill-opacity=".5" d="M5 104.5A4.5 4.5 0 0 1 .5 100h-1a5.5 5.5 0 0 0 5.5 5.5v-1ZM.5 100V88.12h-1V100h1Zm0-35.63V40.63h-1v23.76h1Zm0-47.5V5h-1v11.88h1ZM.5 5A4.5 4.5 0 0 1 5 .5v-1A5.5 5.5 0 0 0-.5 5h1ZM5 .5h13.22v-1H5v1Zm39.65 0H71.1v-1H44.65v1Zm52.87 0h26.44v-1H97.52v1Zm52.87 0h13.22v-1h-13.22v1Zm13.22 0a4.5 4.5 0 0 1 4.5 4.5h1a5.5 5.5 0 0 0-5.5-5.5v1Zm4.5 4.5v11.88h1V5h-1Zm0 35.63v23.74h1V40.63h-1Zm0 47.5V100h1V88.12h-1Zm0 11.87a4.5 4.5 0 0 1-4.5 4.5v1a5.5 5.5 0 0 0 5.5-5.5h-1Zm-4.5 4.5h-13.22v1h13.22v-1Zm-39.65 0H97.52v1h26.44v-1Zm-52.87 0H44.65v1H71.1v-1Zm-52.87 0H5v1h13.22v-1ZM5 104a4 4 0 0 1-4-4h-2a6 6 0 0 0 6 6v-2Zm-4-4V88.12h-2V100h2Zm0-35.63V40.63h-2v23.76h2Zm0-47.5V5h-2v11.88h2ZM1 5a4 4 0 0 1 4-4v-2a6 6 0 0 0-6 6h2Zm4-4h13.22v-2H5v2Zm39.65 0H71.1v-2H44.65v2Zm52.87 0h26.44v-2H97.52v2Zm52.87 0h13.22v-2h-13.22v2Zm13.22 0a4 4 0 0 1 4 4h2a6 6 0 0 0-6-6v2Zm4 4v11.88h2V5h-2Zm0 35.63v23.74h2V40.63h-2Zm0 47.5V100h2V88.12h-2Zm0 11.87a4 4 0 0 1-4 4v2a6 6 0 0 0 6-6h-2Zm-4 4h-13.22v2h13.22v-2Zm-39.65 0H97.52v2h26.44v-2Zm-52.87 0H44.65v2H71.1v-2Zm-52.87 0H5v2h13.22v-2Z"/>
  </g>
</svg>
