<svg xmlns="http://www.w3.org/2000/svg" viewBox="0 0 257.5 202">
  <clipPath id="a">
    <path fill-rule="evenodd" d="M0 5a5 5 0 0 1 5-5h247.5a5 5 0 0 1 5 5v192a5 5 0 0 1-5 5H5a5 5 0 0 1-5-5V5z"/>
  </clipPath>
  <g clip-path="url(#a)">
    <path fill-opacity=".5" d="M5 201.5A4.5 4.5 0 0 1 .5 197h-1a5.5 5.5 0 0 0 5.5 5.5v-1zM.5 197v-16h-1v16h1zm0-48v-32h-1v32h1zm0-64V53h-1v32h1zm0-64V5h-1v16h1zm0-16A4.5 4.5 0 0 1 5 .5v-1A5.5 5.5 0 0 0-.5 5h1zM5 .5h15.47v-1H5v1zm46.4 0h30.94v-1H51.41v1zm61.88 0h30.94v-1h-30.94v1zm61.88 0h30.93v-1h-30.93v1zm61.87 0h15.47v-1h-15.47v1zm15.47 0A4.5 4.5 0 0 1 257 5h1a5.5 5.5 0 0 0-5.5-5.5v1zM257 5v16h1V5h-1zm0 48v32h1V53h-1zm0 64v32h1v-32h-1zm0 64v16h1v-16h-1zm0 16a4.5 4.5 0 0 1-4.5 4.5v1a5.5 5.5 0 0 0 5.5-5.5h-1zm-4.5 4.5h-15.47v1h15.47v-1zm-46.4 0h-30.94v1h30.93v-1zm-61.88 0h-30.94v1h30.94v-1zm-61.88 0H51.41v1h30.93v-1zm-61.87 0H5v1h15.47v-1zM5 201a4 4 0 0 1-4-4h-2a6 6 0 0 0 6 6v-2zm-4-4v-16h-2v16h2zm0-48v-32h-2v32h2zm0-64V53h-2v32h2zm0-64V5h-2v16h2zM1 5a4 4 0 0 1 4-4v-2a6 6 0 0 0-6 6h2zm4-4h15.47v-2H5v2zm46.4 0h30.94v-2H51.41v2zm61.88 0h30.94v-2h-30.94v2zm61.88 0h30.93v-2h-30.93v2zm61.87 0h15.47v-2h-15.47v2zm15.47 0a4 4 0 0 1 4 4h2a6 6 0 0 0-6-6v2zm4 4v16h2V5h-2zm0 48v32h2V53h-2zm0 64v32h2v-32h-2zm0 64v16h2v-16h-2zm0 16a4 4 0 0 1-4 4v2a6 6 0 0 0 6-6h-2zm-4 4h-15.47v2h15.47v-2zm-46.4 0h-30.94v2h30.93v-2zm-61.88 0h-30.94v2h30.94v-2zm-61.88 0H51.41v2h30.93v-2zm-61.87 0H5v2h15.47v-2z"/>
  </g>
</svg>
