<svg width="17" height="17" viewBox="0 0 17 17" fill="none" xmlns="http://www.w3.org/2000/svg">
<path d="M1.07538 15.9246C0.0502551 14.8995 0.0502556 13.2374 1.07538 12.2123L12.2123 1.07538C13.2374 0.0502564 14.8995 0.0502561 15.9246 1.07538C16.9497 2.10051 16.9497 3.76257 15.9246 4.78769L4.78769 15.9246C3.76257 16.9498 2.10051 16.9498 1.07538 15.9246Z" fill="#292929"/>
<path d="M15.9246 15.9246C14.8995 16.9497 13.2374 16.9497 12.2123 15.9246L1.07538 4.78769C0.0502517 3.76256 0.0502517 2.10051 1.07538 1.07538C2.1005 0.0502527 3.76256 0.0502529 4.78769 1.07538L15.9246 12.2123C16.9497 13.2374 16.9497 14.8995 15.9246 15.9246Z" fill="#292929"/>
</svg>
