<svg width="21" height="21" viewBox="0 0 21 21" fill="none" xmlns="http://www.w3.org/2000/svg">
<path d="M0 10.5C0 9.05026 1.17525 7.87501 2.625 7.87501L18.375 7.87501C19.8247 7.87501 21 9.05026 21 10.5C21 11.9498 19.8247 13.125 18.375 13.125L2.625 13.125C1.17525 13.125 0 11.9498 0 10.5Z" fill="#292929"/>
<path d="M10.5 21C9.05025 21 7.875 19.8247 7.875 18.375L7.875 2.625C7.875 1.17525 9.05025 0 10.5 0C11.9497 0 13.125 1.17525 13.125 2.625L13.125 18.375C13.125 19.8247 11.9497 21 10.5 21Z" fill="#292929"/>
</svg>
