<svg xmlns="http://www.w3.org/2000/svg" viewBox="0 0 724.5 105.4"><path d="M0 2h11.2v91.1h61.4v10.2H.1V2H0zm84.6 61.6V2.1h11.2v61.5c0 19.5 10.9 31.6 31.3 31.6s31.3-12.2 31.3-31.6V2.1h10.9v61.5c0 25.6-15 41.8-42 41.8S84.6 89.1 84.6 63.6zm100.6-27.5c0-24 14.7-36.1 33.9-36.1C233 0 243.9 6.7 249 18.9 254.1 6.7 265 0 278.9 0c19.2 0 33.9 12.1 33.9 36.1v67.3h-11.2V36.1c0-17.2-10.1-25.9-23.6-25.9s-23.6 9.1-23.6 25.9v67.3h-11.2V36.1c0-16.7-9.9-25.9-23.6-25.9S196 18.9 196 36.1v67.3h-11.2V36.1h.4zM331.8 2H343v101.4h-11.2V2zm29.9 39.9c0-25.6 15.2-41.8 42.6-41.8s42.5 16.3 42.5 41.8v61.5h-11.2V41.9c0-19.5-10.8-31.6-31.3-31.6s-31.5 12.1-31.5 31.6v61.5h-11.2V41.9h.1zm191.1 21.7V2.1H564v61.5c0 19.5 10.8 31.6 31.3 31.6s31.3-12.2 31.3-31.6V2.1h10.8v61.5c0 25.6-15 41.8-42 41.8s-42.6-16.3-42.6-41.8zm97.8 11.3h11c.5 12.9 9.9 20.3 26 20.3s26-7.9 26-20.3c0-13.3-12.9-15.7-26.7-17.7-16.4-2.3-34.1-5.4-34.1-27 0-18 14-30.2 34.9-30.2s34.1 11.6 34.7 29.3h-10.7c-.6-11.6-9.5-19.1-24-19.1s-24 7.8-24 19.7c0 13 12.7 15.2 26.5 17.4 16.4 2.6 34.3 5.6 34.3 27.3 0 18.9-14.6 30.8-36.9 30.8-21.9 0-36.5-11.6-37-30.5z"/><g fill="none" stroke="#000" stroke-miterlimit="128"><path d="M483.7 72.3h32.1m-24.1 18.8v5.7c0 1.3 1.1 2.4 2.4 2.4h11.3c1.3 0 2.4-1.1 2.4-2.4v-5.7m21.4-52.6c0 10.7-3.2 16.5-8.4 24-3.2 4.7-5 10.2-5 15.9v7.1c0 3.1-2.4 5.5-5.4 5.5H489c-3 0-5.4-2.5-5.4-5.5v-7.1c0-5.7-1.8-11.3-5-15.9-5.2-7.5-8.4-13.3-8.4-24 0-16.6 13.4-30.4 29.4-30.4s29.6 13.8 29.6 30.4z" stroke-width="11"/></g></svg>