<svg xmlns="http://www.w3.org/2000/svg" height="24" viewBox="0 -960 960 960" width="24"><path d="m684-389-49-49q22-26 33.5-57t11.5-65q0-31-10-60t-28-54q-8-12-8-26t10-24q10-10 24-10t22 11q27 35 42.5 76.5T748-560q0 48-17 91.5T684-389ZM565-508 428-645q12-7 25-11t27-4q42 0 71 29t29 71q0 14-4 27t-11 25Zm215 214-48-48q40-45 60-101.5T812-560q0-58-18.5-112T739-771q-9-11-9-25t10-24q10-10 24-9.5t23 11.5q45 55 69 121t24 137q0 74-25.5 142.5T780-294ZM763-84 520-327v167q0 17-11.5 28.5T480-120q-17 0-28.5-11.5T440-160v-247L280-566v6q0 31 10 60t28 54q8 12 8 26t-10 24q-10 10-24 10t-22-11q-27-35-42.5-76.5T212-560q0-17 2-33t7-33l-51-51q-11 29-16.5 58t-5.5 59q0 58 18.5 112t54.5 99q9 11 9 25t-10 24q-10 10-24 9.5T173-302q-45-55-69-121T80-560q0-44 9.5-86.5T118-729l-34-34q-11-11-11-27.5T84-819q12-12 28.5-12t28.5 12l679 679q12 12 11.5 28T819-84q-12 11-28 11.5T763-84Z"/></svg>